<?xml version="1.0" encoding="iso-8859-1"?>
<!-- Generator: Adobe Illustrator 17.1.0, SVG Export Plug-In . SVG Version: 6.00 Build 0)  -->
<!DOCTYPE svg PUBLIC "-//W3C//DTD SVG 1.1//EN" "http://www.w3.org/Graphics/SVG/1.1/DTD/svg11.dtd">
<svg version="1.1" id="Capa_1" xmlns="http://www.w3.org/2000/svg" xmlns:xlink="http://www.w3.org/1999/xlink" x="0px" y="0px"
	 width="24" height="24" viewBox="0 0 210.012 210.012" style="enable-background:new 0 0 210.012 210.012;" xml:space="preserve" fill="#fff">
<path d="M105.006,210.012c-0.911,0-1.823-0.249-2.628-0.746c-1.972-1.219-48.502-30.351-67.127-75.221
	C16.758,89.492,23.024,25.808,23.299,23.119c0.151-1.467,0.941-2.793,2.16-3.623c1.219-0.831,2.742-1.079,4.162-0.683
	c0.105,0.029,11.113,3.046,24.439,3.046c4.635,0,9.042-0.364,13.096-1.083c21.75-3.855,33.809-18.733,33.928-18.884
	C102.033,0.701,103.478,0,105.001,0c0.005,0,0.01,0,0.016,0c1.529,0.005,2.976,0.703,3.921,1.905
	c0.109,0.138,12.168,15.016,33.918,18.871c4.055,0.719,8.461,1.083,13.096,1.083c13.404,0,24.33-3.015,24.439-3.046
	c1.419-0.396,2.943-0.148,4.162,0.683c1.219,0.83,2.009,2.155,2.16,3.623c0.275,2.688,6.542,66.373-11.951,110.926
	c-18.625,44.87-65.156,74.002-67.127,75.221C106.829,209.763,105.917,210.012,105.006,210.012z M32.809,29.778
	c-1.073,16.491-2.77,65.627,11.678,100.433c14.936,35.983,50.549,62.044,60.519,68.815c9.97-6.771,45.583-32.832,60.519-68.815
	c14.448-34.806,12.751-83.941,11.678-100.433c-4.96,0.959-12.611,2.081-21.251,2.081c-5.219,0-10.212-0.416-14.841-1.237
	c-18.077-3.203-30.277-12.727-36.104-18.324c-5.828,5.598-18.028,15.121-36.104,18.324c-4.629,0.821-9.623,1.237-14.841,1.237
	C45.42,31.859,37.769,30.736,32.809,29.778z M105.006,166.127c-8.075,0-14.645-6.569-14.645-14.645s6.569-14.645,14.645-14.645
	s14.645,6.569,14.645,14.645S113.081,166.127,105.006,166.127z M105.006,146.838c-2.561,0-4.645,2.084-4.645,4.645
	s2.083,4.645,4.645,4.645s4.645-2.084,4.645-4.645S107.567,146.838,105.006,146.838z M105.006,131.074
	c-8.075,0-14.645-6.569-14.645-14.645V52.055c0-8.075,6.569-14.645,14.645-14.645s14.645,6.569,14.645,14.645v64.375
	C119.65,124.505,113.081,131.074,105.006,131.074z M105.006,47.41c-2.561,0-4.645,2.084-4.645,4.645v64.375
	c0,2.561,2.083,4.645,4.645,4.645s4.645-2.084,4.645-4.645V52.055C109.65,49.494,107.567,47.41,105.006,47.41z"/>
<g>
</g>
<g>
</g>
<g>
</g>
<g>
</g>
<g>
</g>
<g>
</g>
<g>
</g>
<g>
</g>
<g>
</g>
<g>
</g>
<g>
</g>
<g>
</g>
<g>
</g>
<g>
</g>
<g>
</g>
</svg>
